<svg width="22" height="22" viewBox="0 0 22 22" fill="none" xmlns="http://www.w3.org/2000/svg">
<g clip-path="url(#clip0_11_45)">
<path d="M11 22C4.93481 22 0 17.0654 0 11C0 4.93464 4.93481 0 11 0C17.0654 0 22 4.93464 22 11C22 17.0654 17.0654 22 11 22ZM11.5156 18.8657L15.1198 20.075C16.3567 19.5116 17.4593 18.7047 18.3641 17.713L18.3573 13.8782L15.1594 13.1038L11.5156 15.7513V18.8657ZM6.85614 20.0642L10.4844 18.8636V15.7513L6.8406 13.1038L3.66492 13.8778L3.65776 17.4966C3.65776 17.5633 3.63768 17.6251 3.60451 17.6779C4.50913 18.6792 5.61489 19.4944 6.85614 20.0642ZM2.31437 6.11513C1.66886 7.25825 1.2416 8.53967 1.09197 9.90419L3.34854 12.8944L6.52684 12.1197L7.91633 7.84352L5.92656 4.92468L2.31437 6.11513ZM12.9147 1.21175C12.2947 1.09057 11.6553 1.02789 11.0002 1.02789C10.2747 1.02771 9.56756 1.1103 8.8859 1.25836L6.75697 4.3024L8.75198 7.21879H13.2447L15.0525 4.30868L12.9147 1.21175ZM15.8877 4.92782L14.0831 7.84213L15.4732 12.1199L18.6736 12.8948L20.9138 9.94889C20.7713 8.59502 20.3563 7.32181 19.7254 6.18375L15.8877 4.92782Z" fill="white"/>
</g>
<defs>
<clipPath id="clip0_11_45">
<rect width="22" height="22" fill="white" transform="matrix(1 0 0 -1 0 22)"/>
</clipPath>
</defs>
</svg>
