<svg width="154" height="38" viewBox="0 0 154 38" fill="none" xmlns="http://www.w3.org/2000/svg">
<g clip-path="url(#clip0_2_130)">
<path d="M19 38C8.52376 38 0 29.4765 0 19C0 8.52346 8.52376 0 19 0C29.4765 0 38 8.52346 38 19C38 29.4765 29.4765 38 19 38ZM19.8906 32.5862L26.116 34.675C28.2524 33.7018 30.1569 32.3081 31.7197 30.5951L31.708 23.9714L26.1844 22.6338L19.8906 27.2068V32.5862ZM11.8424 34.6563L18.1094 32.5826V27.2068L11.8156 22.6338L6.33032 23.9708L6.31795 30.2215C6.31795 30.3367 6.28327 30.4434 6.22597 30.5345C7.78849 32.2641 9.69844 33.6722 11.8424 34.6563ZM3.99754 10.5625C2.88257 12.537 2.14459 14.7503 1.88613 17.1072L5.78384 22.2722L11.2736 20.9341L13.6737 13.5479L10.2368 8.50627L3.99754 10.5625ZM22.3072 2.09301C21.2363 1.88371 20.1319 1.77544 19.0003 1.77544C17.7472 1.77514 16.5258 1.91779 15.3484 2.17354L11.6711 7.43141L15.1171 12.4688H22.8772L25.9998 7.44227L22.3072 2.09301ZM27.4423 8.5117L24.3254 13.5455L26.7264 20.9344L32.2545 22.2728L36.1238 17.1844C35.8777 14.8459 35.1609 12.6468 34.0712 10.681L27.4423 8.5117Z" fill="white"/>
</g>
<path d="M57.1003 31.1948C54.7441 31.1948 52.796 30.6475 51.2561 29.5529C49.7347 28.4397 48.9091 26.8163 48.7792 24.6826H55.3471C55.4398 25.8144 55.9408 26.3803 56.8499 26.3803C57.1838 26.3803 57.4621 26.306 57.6848 26.1576C57.926 25.9906 58.0466 25.7402 58.0466 25.4062C58.0466 24.9424 57.7961 24.5713 57.2951 24.293C56.7942 23.9962 56.015 23.6622 54.9574 23.2911C53.6958 22.8459 52.6476 22.4099 51.8127 21.9831C50.9963 21.5564 50.2913 20.9349 49.6976 20.1186C49.1039 19.3022 48.8163 18.254 48.8349 16.9738C48.8349 15.6936 49.1596 14.6083 49.8089 13.7177C50.4769 12.8086 51.3767 12.1221 52.5084 11.6583C53.6587 11.1945 54.9482 10.9626 56.3768 10.9626C58.7887 10.9626 60.6997 11.5191 62.1097 12.6323C63.5383 13.7455 64.2897 15.3133 64.3639 17.3356H57.7126C57.694 16.779 57.5549 16.3801 57.2951 16.1389C57.0354 15.8977 56.72 15.7771 56.3489 15.7771C56.0892 15.7771 55.8758 15.8699 55.7089 16.0554C55.5419 16.2224 55.4584 16.4636 55.4584 16.779C55.4584 17.2243 55.6996 17.5953 56.182 17.8922C56.6829 18.1705 57.4714 18.5137 58.5475 18.9219C59.7906 19.3857 60.811 19.831 61.6088 20.2577C62.4251 20.6844 63.1301 21.2781 63.7238 22.0388C64.3175 22.7995 64.6144 23.755 64.6144 24.9053C64.6144 26.1112 64.3175 27.1966 63.7238 28.1614C63.1301 29.1076 62.2674 29.8497 61.1357 30.3877C60.0039 30.9258 58.6588 31.1948 57.1003 31.1948ZM78.0562 15.1927C79.8558 15.1927 81.2566 15.7957 82.2585 17.0016C83.2789 18.2076 83.7891 19.8403 83.7891 21.8997V31H77.6387V22.6789C77.6387 21.9368 77.4346 21.3523 77.0265 20.9256C76.6369 20.4803 76.1081 20.2577 75.4402 20.2577C74.7537 20.2577 74.2157 20.4803 73.826 20.9256C73.4364 21.3523 73.2416 21.9368 73.2416 22.6789V31H67.0634V10.406H73.2416V17.6974C73.724 16.9552 74.3641 16.3523 75.1619 15.8884C75.9782 15.4246 76.943 15.1927 78.0562 15.1927ZM94.2048 31.1948C92.6278 31.1948 91.2085 30.8701 89.9469 30.2208C88.6853 29.5714 87.6927 28.6437 86.9691 27.4378C86.2641 26.2133 85.9116 24.7847 85.9116 23.152C85.9116 21.5193 86.2641 20.1 86.9691 18.894C87.6927 17.6695 88.6853 16.7326 89.9469 16.0832C91.2085 15.4339 92.6278 15.1092 94.2048 15.1092C95.7819 15.1092 97.2012 15.4339 98.4628 16.0832C99.7244 16.7326 100.708 17.6695 101.413 18.894C102.136 20.1 102.498 21.5193 102.498 23.152C102.498 24.7847 102.136 26.2133 101.413 27.4378C100.708 28.6437 99.7244 29.5714 98.4628 30.2208C97.2012 30.8701 95.7819 31.1948 94.2048 31.1948ZM94.2048 25.8515C94.78 25.8515 95.2624 25.6289 95.652 25.1836C96.0416 24.7197 96.2364 24.0426 96.2364 23.152C96.2364 22.2614 96.0416 21.5935 95.652 21.1483C95.2624 20.6844 94.78 20.4525 94.2048 20.4525C93.6297 20.4525 93.1473 20.6844 92.7577 21.1483C92.3681 21.5935 92.1733 22.2614 92.1733 23.152C92.1733 24.0426 92.3588 24.7197 92.7299 25.1836C93.1195 25.6289 93.6111 25.8515 94.2048 25.8515ZM114.486 25.7402V31H112.148C107.844 31 105.691 28.8571 105.691 24.5713V20.4525H103.743V15.304H105.691V11.5191H111.87V15.304H114.43V20.4525H111.87V24.6826C111.87 25.0537 111.953 25.3227 112.12 25.4897C112.306 25.6567 112.602 25.7402 113.011 25.7402H114.486ZM129.752 28.0222H123.184L122.21 31H115.725L122.933 11.2965H130.058L137.238 31H130.726L129.752 28.0222ZM128.249 23.3746L126.468 17.8922L124.687 23.3746H128.249ZM145.098 11.2965V31H138.92V11.2965H145.098Z" fill="white"/>
<defs>
<clipPath id="clip0_2_130">
<rect width="38" height="38" fill="white" transform="matrix(1 0 0 -1 0 38)"/>
</clipPath>
</defs>
</svg>
