<svg width="54" height="13" viewBox="0 0 54 13" fill="none" xmlns="http://www.w3.org/2000/svg">
<path d="M5.056 12.112C4.23467 12.112 3.49867 11.9787 2.848 11.712C2.19733 11.4453 1.67467 11.0507 1.28 10.528C0.896 10.0053 0.693333 9.376 0.672 8.64H3.584C3.62667 9.056 3.77067 9.376 4.016 9.6C4.26133 9.81333 4.58133 9.92 4.976 9.92C5.38133 9.92 5.70133 9.82933 5.936 9.648C6.17067 9.456 6.288 9.19467 6.288 8.864C6.288 8.58667 6.192 8.35733 6 8.176C5.81867 7.99467 5.58933 7.84533 5.312 7.728C5.04533 7.61067 4.66133 7.47733 4.16 7.328C3.43467 7.104 2.84267 6.88 2.384 6.656C1.92533 6.432 1.53067 6.10133 1.2 5.664C0.869333 5.22667 0.704 4.656 0.704 3.952C0.704 2.90667 1.08267 2.09067 1.84 1.504C2.59733 0.906666 3.584 0.608 4.8 0.608C6.03733 0.608 7.03467 0.906666 7.792 1.504C8.54933 2.09067 8.95467 2.912 9.008 3.968H6.048C6.02667 3.60533 5.89333 3.32267 5.648 3.12C5.40267 2.90667 5.088 2.8 4.704 2.8C4.37333 2.8 4.10667 2.89067 3.904 3.072C3.70133 3.24267 3.6 3.49333 3.6 3.824C3.6 4.18667 3.77067 4.46933 4.112 4.672C4.45333 4.87467 4.98667 5.09333 5.712 5.328C6.43733 5.57333 7.024 5.808 7.472 6.032C7.93067 6.256 8.32533 6.58133 8.656 7.008C8.98667 7.43467 9.152 7.984 9.152 8.656C9.152 9.296 8.98667 9.87733 8.656 10.4C8.336 10.9227 7.86667 11.3387 7.248 11.648C6.62933 11.9573 5.89867 12.112 5.056 12.112ZM16.4838 2.976C17.5078 2.976 18.3291 3.31733 18.9478 4C19.5664 4.672 19.8758 5.6 19.8758 6.784V12H17.1558V7.152C17.1558 6.55467 17.0011 6.09067 16.6918 5.76C16.3824 5.42933 15.9664 5.264 15.4437 5.264C14.9211 5.264 14.5051 5.42933 14.1958 5.76C13.8864 6.09067 13.7318 6.55467 13.7318 7.152V12H10.9957V0.16H13.7318V4.272C14.0091 3.87733 14.3877 3.56267 14.8678 3.328C15.3478 3.09333 15.8864 2.976 16.4838 2.976ZM26.001 12.128C25.1263 12.128 24.337 11.9413 23.633 11.568C22.9397 11.1947 22.3903 10.6613 21.985 9.968C21.5903 9.27467 21.393 8.464 21.393 7.536C21.393 6.61867 21.5957 5.81333 22.001 5.12C22.4063 4.416 22.961 3.87733 23.665 3.504C24.369 3.13067 25.1583 2.944 26.033 2.944C26.9077 2.944 27.697 3.13067 28.401 3.504C29.105 3.87733 29.6597 4.416 30.065 5.12C30.4703 5.81333 30.673 6.61867 30.673 7.536C30.673 8.45333 30.465 9.264 30.049 9.968C29.6437 10.6613 29.0837 11.1947 28.369 11.568C27.665 11.9413 26.8757 12.128 26.001 12.128ZM26.001 9.76C26.5237 9.76 26.9663 9.568 27.329 9.184C27.7023 8.8 27.889 8.25067 27.889 7.536C27.889 6.82133 27.7077 6.272 27.345 5.888C26.993 5.504 26.5557 5.312 26.033 5.312C25.4997 5.312 25.057 5.504 24.705 5.888C24.353 6.26133 24.177 6.81067 24.177 7.536C24.177 8.25067 24.3477 8.8 24.689 9.184C25.041 9.568 25.4783 9.76 26.001 9.76ZM37.2605 9.68V12H35.8685C34.8765 12 34.1032 11.76 33.5485 11.28C32.9938 10.7893 32.7165 9.99467 32.7165 8.896V5.344H31.6285V3.072H32.7165V0.896H35.4525V3.072H37.2445V5.344H35.4525V8.928C35.4525 9.19467 35.5165 9.38667 35.6445 9.504C35.7725 9.62133 35.9858 9.68 36.2845 9.68H37.2605ZM45.9365 10.016H41.7445L41.0725 12H38.2085L42.2725 0.768H45.4405L49.5045 12H46.6085L45.9365 10.016ZM45.2325 7.904L43.8405 3.792L42.4645 7.904H45.2325ZM53.6374 0.768V12H50.9014V0.768H53.6374Z" fill="white"/>
</svg>
